<?xml version="1.0" standalone="no"?>
<!DOCTYPE svg PUBLIC "-//W3C//DTD SVG 20010904//EN"
 "http://www.w3.org/TR/2001/REC-SVG-20010904/DTD/svg10.dtd">
<svg version="1.0" xmlns="http://www.w3.org/2000/svg"
 width="1024.000000pt" height="1024.000000pt" viewBox="0 0 1024.000000 1024.000000"
 preserveAspectRatio="xMidYMid meet">
<style>
  :root {
    --color-accent: rgb(91, 95, 176);
  }
  @media (prefers-color-scheme: dark) {
    :root {
      --color-accent: rgb(91, 95, 176);
    }
  }
  g {
    fill: var(--color-accent, #5B5FB0);
  }
</style>
<g transform="translate(0.000000,1024.000000) scale(0.100000,-0.100000)"
fill="currentColor" stroke="none">
<path d="M0 5120 l0 -5120 5120 0 5120 0 0 5120 0 5120 -5120 0 -5120 0 0
-5120z m5036 3053 c22 -8 27 -43 9 -63 -9 -10 -53 -28 -98 -40 -606 -164
-1175 -444 -1568 -773 -439 -368 -707 -842 -785 -1388 -54 -382 85 -843 368
-1217 63 -83 72 -106 51 -127 -20 -21 -57 -13 -153 31 -247 115 -464 390 -558
710 -49 166 -57 230 -56 464 0 250 10 316 87 585 59 210 232 531 404 754 86
111 293 323 408 416 244 198 556 374 864 486 195 72 487 140 701 164 104 12
293 11 326 -2z m2694 -78 c7 -8 30 -68 52 -132 62 -186 123 -280 232 -358 79
-55 132 -81 235 -116 92 -32 111 -43 111 -69 0 -26 -22 -40 -117 -72 -262 -88
-384 -216 -469 -493 -31 -103 -38 -115 -69 -115 -29 0 -40 15 -55 70 -19 75
-69 201 -105 266 -69 124 -217 228 -403 284 -141 43 -138 84 8 129 207 64 337
164 414 318 28 55 86 224 86 248 0 19 35 55 54 55 7 0 19 -7 26 -15z m-1823
-491 c92 -70 80 -200 -23 -249 -124 -59 -248 74 -187 202 35 74 143 98 210 47z
m623 -757 c353 -62 683 -192 970 -382 564 -373 870 -914 870 -1540 0 -457
-138 -874 -408 -1237 -121 -163 -320 -371 -374 -391 -57 -21 -62 34 -11 118
66 109 236 456 293 600 271 683 245 1222 -82 1711 -81 122 -235 287 -353 380
-545 425 -1366 563 -2160 363 -449 -113 -836 -328 -1135 -633 -41 -42 -82 -76
-91 -76 -28 0 -42 27 -36 69 21 157 249 436 482 589 247 164 570 301 895 382
266 66 396 80 725 76 234 -4 289 -7 415 -29z m-2980 -331 c46 -31 70 -80 70
-146 0 -84 -49 -148 -131 -170 -142 -38 -267 117 -200 248 23 45 45 66 91 87
47 21 123 13 170 -19z m1735 -506 c170 -44 309 -119 430 -232 146 -137 241
-303 297 -517 38 -147 43 -266 12 -307 -13 -19 -86 -61 -210 -124 -373 -189
-648 -288 -969 -350 -139 -27 -423 -39 -479 -20 -47 15 -88 76 -139 205 -97
246 -108 461 -36 676 52 155 115 259 230 383 152 162 292 234 584 299 57 13
207 6 280 -13z m1160 -216 c310 -50 471 -170 491 -365 22 -217 -180 -501 -561
-787 -172 -129 -241 -171 -450 -277 -178 -89 -168 -85 -355 -155 -292 -109
-552 -172 -930 -227 -174 -25 -600 -24 -745 1 -406 72 -577 191 -630 441 -19
88 -19 117 0 188 19 73 65 146 152 237 152 162 521 421 563 395 6 -3 10 -34
10 -69 0 -82 -18 -108 -141 -207 -177 -143 -306 -302 -316 -392 -10 -84 58
-170 182 -231 143 -70 298 -96 578 -96 201 0 240 3 447 36 397 64 893 245
1242 453 348 208 626 498 646 676 4 36 0 47 -28 79 -65 73 -183 112 -382 126
-90 6 -150 15 -173 25 -32 16 -95 97 -95 124 0 46 279 60 495 25z m-4616 -43
c19 -12 19 -50 -3 -211 -49 -358 24 -726 216 -1090 72 -136 97 -175 194 -297
327 -410 838 -696 1429 -799 363 -63 740 -65 1090 -3 184 32 283 57 454 114
310 105 552 228 820 414 52 36 86 40 102 10 9 -18 5 -29 -27 -75 -47 -69 -187
-212 -279 -285 -357 -285 -853 -476 -1388 -534 -549 -59 -1157 54 -1661 310
-239 121 -402 240 -592 429 -239 239 -389 474 -484 756 -96 286 -115 637 -50
915 39 165 102 324 137 344 22 13 25 13 42 2z m5456 -1051 c43 -48 62 -330 35
-520 -46 -311 -183 -645 -398 -972 -189 -286 -472 -568 -765 -762 -349 -232
-704 -376 -1088 -442 -129 -22 -185 -27 -349 -28 -261 -1 -370 20 -370 70 0
31 18 39 125 53 298 40 662 138 913 247 377 162 707 396 1023 722 274 283 455
553 607 907 87 203 170 482 188 635 7 57 19 90 38 102 16 11 21 10 41 -12z
m-4211 -2051 c120 -30 189 -171 141 -287 -72 -171 -318 -169 -396 3 -60 132
40 287 189 294 13 1 43 -4 66 -10z"/>
</g>
</svg>
