<?xml version="1.0" standalone="no"?>
<!DOCTYPE svg PUBLIC "-//W3C//DTD SVG 20010904//EN"
 "http://www.w3.org/TR/2001/REC-SVG-20010904/DTD/svg10.dtd">
<svg version="1.0" xmlns="http://www.w3.org/2000/svg"
 width="1024.000000pt" height="1024.000000pt" viewBox="0 0 1024.000000 1024.000000"
 preserveAspectRatio="xMidYMid meet">
<style>
:root {
--color-accent: rgb(91, 95, 176);
}
@media (prefers-color-scheme: dark) {
:root {
    --color-accent: rgb(91, 95, 176);
}
}
g {
fill: var(--color-accent, #5B5FB0);
}
</style>
<g transform="translate(0.000000,1024.000000) scale(0.100000,-0.100000)"
fill="#000000" stroke="none">
<path d="M7671 8862 c-55 -27 -68 -56 -91 -192 -41 -245 -85 -369 -174 -493
-131 -185 -322 -294 -663 -383 -75 -19 -149 -44 -165 -55 -63 -45 -71 -113
-20 -162 23 -22 54 -31 202 -61 274 -54 396 -106 517 -219 143 -134 246 -345
299 -616 27 -137 48 -182 94 -201 38 -16 105 -7 132 17 32 29 44 61 68 183 77
394 240 623 531 746 78 33 244 78 334 90 139 19 208 104 155 191 -28 47 -57
62 -177 89 -405 91 -625 240 -747 506 -54 116 -99 284 -121 450 -7 55 -36 95
-81 114 -43 18 -52 18 -93 -4z"/>
<path d="M5328 7679 c-459 -44 -1003 -317 -1512 -758 -248 -215 -632 -614
-743 -772 -63 -92 -77 -183 -37 -245 32 -47 127 -59 199 -24 23 11 82 55 131
98 49 42 152 125 229 183 573 433 1082 692 1507 769 274 49 453 8 586 -134 97
-105 148 -225 178 -426 24 -157 24 -583 0 -790 -46 -401 -58 -534 -63 -745
-11 -470 61 -723 219 -766 69 -18 193 -7 260 23 63 29 151 106 175 152 21 40
12 102 -26 192 -46 108 -61 196 -61 359 0 150 17 311 50 480 31 159 67 395 92
600 31 265 31 683 0 855 -55 302 -144 492 -310 659 -171 173 -369 263 -641
291 -113 11 -108 11 -233 -1z"/>
<path d="M8099 6255 c-26 -14 -59 -69 -59 -98 0 -30 -50 -205 -84 -294 -190
-497 -516 -984 -962 -1439 -164 -167 -271 -261 -453 -397 -858 -642 -1776
-1003 -2711 -1067 -163 -11 -272 -9 -485 11 -618 58 -1040 377 -1115 841 -20
125 -8 320 29 455 85 314 304 704 546 973 78 86 104 137 105 198 0 119 -80
173 -180 122 -147 -75 -512 -407 -672 -610 -265 -338 -425 -653 -505 -995 -26
-115 -26 -445 1 -560 45 -196 118 -354 231 -503 282 -375 740 -602 1400 -693
209 -29 593 -32 820 -5 448 52 789 130 1215 279 516 180 1017 451 1510 815
194 144 258 199 459 396 482 475 755 850 925 1273 71 176 143 409 173 560 26
127 28 156 28 368 l0 230 -29 58 c-43 88 -116 120 -187 82z"/>
<path d="M4400 5933 c-14 -2 -74 -17 -135 -33 -318 -84 -604 -254 -889 -530
-247 -240 -415 -495 -506 -769 -50 -149 -64 -252 -57 -405 27 -591 551 -937
1210 -801 447 92 888 408 1182 845 182 271 279 633 245 915 -50 416 -299 696
-688 771 -68 13 -300 18 -362 7z m215 -643 c83 -32 173 -122 204 -205 126
-332 -176 -832 -630 -1044 -109 -51 -183 -70 -294 -77 -144 -10 -253 26 -346
113 -62 58 -97 119 -113 196 -45 215 72 497 296 712 111 108 195 170 313 230
160 82 257 105 410 101 74 -3 115 -9 160 -26z"/>
<path d="M7288 3060 c-33 -10 -69 -35 -168 -116 -240 -196 -601 -437 -915
-612 -645 -358 -1437 -608 -2055 -648 -132 -9 -177 -30 -203 -94 -18 -43 -18
-49 -3 -83 20 -50 65 -69 226 -99 110 -20 156 -23 380 -23 190 1 282 5 362 18
472 75 913 232 1290 461 366 222 594 400 861 676 334 343 411 479 296 519 -36
12 -34 12 -71 1z"/>
</g>
</svg>
