<?xml version="1.0" standalone="no"?>
<!DOCTYPE svg PUBLIC "-//W3C//DTD SVG 20010904//EN"
 "http://www.w3.org/TR/2001/REC-SVG-20010904/DTD/svg10.dtd">
<svg version="1.0" xmlns="http://www.w3.org/2000/svg"
 width="1024.000000pt" height="1024.000000pt" viewBox="0 0 1024.000000 1024.000000"
 preserveAspectRatio="xMidYMid meet">
 <style>
    :root {
    --color-accent: rgb(91, 95, 176);
    }
    @media (prefers-color-scheme: dark) {
    :root {
        --color-accent: rgb(91, 95, 176);
    }
    }
    g {
    fill: var(--color-accent, #5B5FB0);
    }
</style>
<g transform="translate(0.000000,1024.000000) scale(0.100000,-0.100000)"
fill="#000000" stroke="none">
<path d="M6344 8510 c-11 -4 -34 -24 -51 -43 -26 -29 -34 -51 -48 -134 -9 -54
-25 -132 -34 -173 l-16 -75 -95 -32 c-52 -17 -124 -48 -159 -67 -36 -20 -70
-35 -77 -32 -17 7 -150 102 -214 154 -122 99 -129 96 -368 -141 -107 -106
-198 -203 -204 -217 -14 -35 -11 -109 5 -134 8 -11 58 -70 111 -130 53 -60 96
-113 96 -117 0 -5 -15 -32 -32 -61 -18 -29 -49 -93 -69 -142 -41 -104 -26 -95
-257 -145 -73 -16 -140 -35 -149 -42 -9 -8 -25 -33 -35 -56 -17 -38 -19 -68
-18 -266 1 -123 6 -242 12 -265 17 -66 40 -80 190 -112 233 -50 215 -41 252
-145 17 -50 48 -120 68 -157 l38 -68 -105 -127 c-108 -131 -132 -177 -119
-230 11 -43 386 -418 439 -438 55 -21 71 -14 213 94 64 48 125 93 136 98 14 8
35 0 100 -39 44 -26 116 -60 158 -74 43 -14 80 -29 82 -32 2 -4 14 -61 26
-127 27 -154 44 -206 78 -238 54 -51 84 -57 309 -57 190 0 210 2 251 21 24 12
54 37 68 58 23 35 63 190 78 302 l7 45 83 27 c46 15 119 49 162 75 l80 48 99
-72 c170 -124 186 -134 224 -134 20 0 48 8 62 18 35 23 383 382 397 409 20 36
14 86 -14 127 -14 21 -64 81 -110 134 -46 52 -84 99 -84 102 0 4 20 44 45 89
25 45 55 116 67 159 13 42 26 80 31 83 8 6 140 34 286 60 45 9 74 21 95 40
l31 27 3 279 c3 371 20 346 -264 404 l-160 32 -23 63 c-12 34 -42 101 -67 149
l-44 87 88 106 c49 59 99 123 111 142 26 43 27 106 3 140 -29 41 -375 387
-399 399 -58 29 -96 12 -254 -120 -59 -49 -112 -89 -117 -89 -6 0 -39 17 -74
37 -35 20 -106 52 -158 70 l-95 32 -26 138 c-14 76 -31 156 -37 178 -14 49
-56 92 -103 105 -41 12 -475 12 -505 0z m436 -1045 c393 -83 680 -430 680
-822 0 -173 -32 -291 -118 -437 -86 -144 -201 -250 -360 -331 -326 -165 -728
-100 -988 159 -176 176 -257 370 -256 611 0 99 5 135 26 208 46 155 121 281
234 391 115 112 225 174 387 216 90 24 293 26 395 5z"/>
<path d="M2552 7450 c-152 -22 -288 -153 -321 -308 -8 -38 -11 -589 -11 -1972
l0 -1920 -220 0 c-248 0 -271 -5 -296 -65 -18 -43 -20 -621 -3 -724 32 -190
183 -342 369 -371 88 -13 5797 -14 5895 0 183 26 334 159 380 335 20 78 22
725 2 765 -26 53 -61 60 -304 60 l-223 0 0 831 c0 788 -1 831 -17 824 -137
-56 -244 -43 -376 45 -77 51 -107 59 -151 38 -35 -15 -51 -43 -70 -118 -46
-182 -162 -304 -334 -351 -100 -28 -452 -28 -543 1 -150 46 -261 159 -309 315
-45 145 -57 160 -129 160 -37 0 -54 -6 -81 -28 -120 -101 -289 -124 -428 -57
-58 28 -93 59 -256 223 -104 106 -206 213 -227 239 -104 131 -111 322 -17 471
17 27 33 67 36 92 4 39 1 48 -24 73 -18 17 -57 38 -99 52 -132 43 -204 104
-259 220 l-31 65 -3 270 c-4 294 2 345 47 429 35 67 109 139 173 169 70 33 82
48 111 137 13 41 28 83 32 93 7 16 -50 17 -1126 16 -624 -1 -1158 -5 -1187 -9z"/>
</g>
</svg>
