<svg width="2052" height="2052" viewBox="0 0 2052 2052" fill="none" xmlns="http://www.w3.org/2000/svg">
<path d="M996 401.2C975.6 411.2 967.2 418.4 959.2 434C947.6 456.4 885.6 608.8 806.8 810C787.6 858.8 770 900.4 767.2 903.2C764.4 906 757.6 908 751.6 908C745.6 908 728.4 910.4 713.2 913.6C698.4 916.8 656 921.6 618.8 924.4C511.6 932.8 468 922.8 468 890C468 846.4 557.6 778 684 726C713.6 713.6 739.6 702 742.4 699.6C745.2 697.2 750.4 686.8 754 676C760 658.4 760 655.6 754 644.4C750.8 637.6 743.6 629.2 738 625.6C729.2 620 726 620.4 691.2 632C571.2 673.2 438 766.8 403.6 834.8C392 858 390 865.6 390 889.6C390.4 913.2 392.4 921.6 402 939.6C420 972.4 449.6 993.6 492 1004.4C524.4 1012.8 635.2 1011.6 687.2 1002.4C710 998.4 729.2 996 730 996.8C732 998.8 719.2 1036.4 708 1062C703.2 1072.8 691.6 1100.8 682 1124C604.4 1312.8 515.2 1487.6 454.8 1568.8C401.2 1640.4 356.8 1682 299.2 1714.4C254 1739.6 244 1750.4 244 1773.2C244 1786.8 246.4 1791.6 260 1804.8C275.6 1819.2 277.6 1820 302 1820C323.6 1820 331.6 1817.6 354.4 1805.6C410 1776 436 1754.8 483.6 1700.8C538.4 1637.6 574 1584.8 630.8 1482C662 1426 733.2 1276 761.6 1206C770 1186 780.8 1160 786.4 1147.6C791.6 1135.2 796 1123.6 796 1122C796 1120.4 805.6 1094.8 817.6 1064.4C829.2 1034.4 840.8 1004.8 842.8 998C845.6 989.2 850 985.2 860.4 982.8C868 980.8 892.8 973.2 916 966C939.2 958.4 985.2 945.2 1018 936C1051.2 926.8 1095.2 913.6 1116 906.8L1154.4 894L1177.6 962C1254.4 1185.6 1384 1466.8 1468 1592C1502 1642.8 1551.2 1702.4 1584.8 1734.4C1622 1769.6 1682.8 1810 1711.6 1818.4C1763.6 1834 1808.4 1807.6 1796.4 1768.4C1790.8 1749.6 1777.2 1736.8 1740 1715.6C1698 1692 1669.6 1669.2 1634.4 1631.2C1582 1574.4 1527.6 1491.2 1478.4 1392.4C1426.8 1289.2 1348 1109.6 1312.8 1014C1279.2 923.6 1256 858 1256 854C1256 850.4 1317.2 823.6 1324.8 824C1330.8 824 1419.2 781.6 1450.8 763.6C1500.4 734.8 1519.2 721.2 1546.4 693.2C1595.2 642.8 1616.4 598 1610 556.8C1606.4 532.8 1600.4 521.6 1581.2 502.8C1554.4 475.6 1520.8 463.2 1456.4 456C1392.8 448.8 1257.2 462.4 1233.2 478.4C1227.6 481.6 1220.8 490.8 1217.6 498.4C1212.8 510.4 1212.8 514 1217.6 526C1224.4 542 1244.8 556 1262 556C1268.8 556 1292.4 552.4 1315.2 548C1406.8 530.4 1520.4 542.8 1536 572C1541.6 582.8 1529.6 609.6 1511.6 626.8C1483.2 653.2 1370 714 1285.6 747.2C1230.4 769.2 1225.6 770 1218.4 759.2C1210.4 746.4 1128.8 552 1099.6 476.4C1089.6 450.4 1077.6 426.4 1071.2 420C1049.6 398 1018.8 390.4 996 401.2ZM1064.4 675.6C1073.2 698.4 1089.6 736.4 1100.4 760C1111.2 783.6 1120 805.2 1120 808.4C1120 814.4 1070 834.8 1030 845.6C1019.2 848.4 985.2 857.6 954.8 865.6C924 874 898.4 879.6 897.2 878.4C892 873.6 998.8 610.8 1015.2 587.2C1021.6 578.4 1022 578.8 1034.8 606C1042 621.6 1055.2 652.8 1064.4 675.6Z" fill="black"/>
<path d="M1007.2 1563.6C1001.2 1568.4 994.4 1580.8 990 1596L982.4 1620.4L956.4 1617.2C942 1615.6 918.4 1614 904.4 1614C881.6 1614 878 1615.2 870.8 1624.8C863.2 1635.2 863.2 1635.6 870.4 1650.8C876.4 1662.8 884.8 1670 910 1684.4C927.6 1694.4 942.4 1705.6 943.2 1709.2C944 1712.8 936.4 1732 926.4 1752C904.4 1794.8 903.2 1808 920 1824.8C936 1840.4 947.6 1838 974 1812C985.2 1801.2 1001.2 1787.2 1010 1780.8L1026 1769.2L1058.8 1800.4C1090 1830.4 1092.8 1832 1110 1832C1126.8 1832 1128.8 1830.8 1134.8 1818L1141.6 1804L1120.8 1762.8C1090.8 1703.2 1090.4 1707.6 1126.8 1688C1167.2 1666 1172 1661.6 1172 1645.6C1172 1627.2 1168.8 1620.4 1155.6 1614C1145.6 1608.8 1140.4 1608.8 1106 1616C1066 1624.4 1060 1624 1060 1613.6C1060 1601.6 1042.8 1568.4 1033.6 1562C1021.6 1554.4 1019.2 1554.4 1007.2 1563.6Z" fill="black"/>
</svg>
