<svg width="512" height="512" viewBox="0 0 512 512" fill="none" xmlns="http://www.w3.org/2000/svg">
<path d="M215.115 95.9221C214.804 96.7941 213.748 99.9708 212.815 103.085C208.404 117.224 203.744 131.052 201.693 135.848C200.513 138.713 198.524 143.883 197.282 147.309C191.13 164.563 183.487 184.806 179.759 193.651C178.516 196.578 176.342 202.246 174.975 206.233L172.365 213.582L100.722 213.894C61.3281 214.018 28.9553 214.268 28.7689 214.454C28.6446 214.641 33.6155 219.001 39.8912 224.109C46.1669 229.279 55.7359 237.376 61.266 242.11C78.664 257.121 95.6271 270.949 109.049 281.164C132.536 298.916 133.841 299.912 136.823 301.781C140.054 303.836 140.303 304.335 138.874 307.075C137.88 308.944 134.835 317.54 127.068 339.776C121.662 355.348 115.946 370.92 110.602 384.623C108.489 390.104 104.885 400.07 102.524 406.735C97.3048 421.746 92.3339 435.262 90.3456 439.622C89.5378 441.429 88.1708 444.543 87.3009 446.599C83.8834 454.696 84.5048 454.447 103.208 441.304C108.054 437.878 114.268 433.643 117.064 431.899C119.86 430.155 124.21 427.227 126.757 425.421C129.305 423.552 135.083 419.628 139.495 416.638C143.969 413.649 149.561 409.787 151.922 408.105C154.346 406.361 160.497 402.063 165.592 398.575C170.749 395.087 177.584 390.353 180.815 388.173C184.047 385.931 188.52 382.879 190.695 381.322C192.932 379.827 196.971 376.899 199.705 374.844C202.501 372.788 207.658 369.051 211.262 366.56L217.724 362.013L217.911 236.504C218.097 116.664 217.911 98.3513 216.357 95.5484C215.736 94.4272 215.674 94.4895 215.115 95.9221Z" fill="black"/>
<path d="M234.812 97.9153C234.812 99.4102 234.812 117.972 234.812 139.212C234.874 182.75 234.377 177.83 240.093 191.533C241.709 195.27 244.815 203.367 247.052 209.472C249.289 215.576 252.458 223.735 254.074 227.535C255.689 231.397 257.615 236.317 258.361 238.56L259.728 242.608L300.551 242.795C324.474 242.92 341.685 243.231 342.058 243.605C342.369 243.979 342.369 244.165 341.934 244.165C341.561 244.165 337.584 247.467 333.173 251.453C328.761 255.502 319.751 263.412 313.165 269.08C306.579 274.748 297.507 282.534 293.033 286.396C288.559 290.258 283.526 294.182 281.911 295.054C279.736 296.237 279.052 296.985 279.363 297.67C279.549 298.231 280.233 300.598 280.854 303.027C281.538 305.394 282.594 308.757 283.278 310.501C285.39 315.671 292.412 335.105 293.779 339.465C295.581 345.257 298.377 352.732 302.54 363.134C306.703 373.473 308.443 378.643 308.008 379.079C307.697 379.391 300.8 374.844 267.495 352.607C258.982 346.877 250.594 341.396 248.854 340.399C247.177 339.465 243.324 337.036 240.342 334.98C237.421 332.987 234.749 331.367 234.501 331.367C234.252 331.367 234.252 336.911 234.439 343.638C234.687 350.427 234.625 358.026 234.377 360.58C234.066 363.632 234.128 365.376 234.501 365.75C235.247 366.31 261.841 383.689 270.478 389.232C273.522 391.163 278.12 394.277 280.73 396.208C283.402 398.077 287.876 401.129 290.796 402.935C295.518 405.863 304.59 411.842 318.819 421.372C321.367 423.054 326.773 426.604 330.812 429.158C334.85 431.712 344.047 437.941 351.254 442.924C358.524 447.907 364.676 451.831 364.924 451.582C365.235 451.332 362.812 444.854 359.581 437.193C356.349 429.532 352.994 421.185 352.062 418.694C351.192 416.14 349.887 412.777 349.204 411.219C347.464 406.984 340.94 389.357 336.715 377.46C334.726 371.792 330.004 358.462 326.214 347.873C322.361 337.222 318.198 325.076 316.831 320.779C312.854 308.508 312.73 308.072 312.295 307.013C311.736 305.767 315.34 302.591 346.097 276.991C348.645 274.873 353.678 270.762 357.219 267.959C360.823 265.094 365.235 261.419 367.099 259.862C369.025 258.242 371.946 255.751 373.685 254.256C375.425 252.761 377.973 250.581 379.34 249.46C383.441 245.909 393.942 236.816 402.144 229.528C406.431 225.728 411.775 221.368 414.012 219.749C416.311 218.067 418.175 216.51 418.175 216.199C418.175 215.887 389.965 215.763 348.148 215.949L278.058 216.261L277.25 213.582C276.753 212.088 275.076 207.603 273.398 203.679C271.72 199.755 268.676 191.907 266.625 186.238C264.637 180.57 262.089 173.843 261.033 171.352C259.915 168.798 258.113 163.877 256.994 160.452C255.814 156.963 254.447 153.039 253.949 151.669C249.165 139.274 243.324 121.148 237.918 102.275C236.8 98.4759 235.682 95.2993 235.371 95.2993C235.122 95.2993 234.874 96.4827 234.812 97.9153Z" fill="black"/>
<path d="M373.934 97.3547C372.443 99.0365 369.46 106.075 367.782 111.805C367.099 114.172 366.229 116.913 365.918 117.785L365.297 119.467L354.796 119.716C345.6 119.903 344.171 120.09 343.052 121.086C341.499 122.519 341.375 125.073 342.866 126.754C343.86 127.938 352.248 135.474 356.474 138.963L358.462 140.644L357.344 143.634C356.722 145.316 355.417 149.8 354.423 153.662C352.497 161.448 352.683 163.691 355.417 164.625C356.722 165.123 358.027 164.563 363.806 161.012C367.596 158.708 371.697 156.029 372.94 155.033C375.798 152.79 376.357 152.79 379.029 154.97C382.074 157.462 395.433 165.061 396.676 165.061C397.297 165.061 398.291 164.749 398.975 164.438C400.901 163.379 400.466 160.016 397.173 150.05L394.128 140.956L395.433 139.461C396.179 138.651 397.732 137.281 398.913 136.471C401.149 134.914 406.182 130.554 410.221 126.692C412.52 124.45 412.52 124.45 411.526 122.519C410.967 121.398 410.221 120.339 409.848 120.09C409.476 119.84 405.685 119.591 401.398 119.591C397.111 119.591 392.14 119.404 390.338 119.218L387.107 118.782L385.243 112.677C382.944 105.203 379.961 98.4759 378.532 97.417C376.606 95.9844 375.177 95.9221 373.934 97.3547Z" fill="black"/>
<path d="M293.654 97.9153C292.722 99.4102 289.988 106.075 287.938 112.117L286.757 115.543L277.437 115.916C266.128 116.352 265.32 116.601 265.32 118.968C265.32 120.463 266.19 121.522 270.167 124.948C272.777 127.19 276.256 129.931 277.934 130.99C279.549 132.049 280.854 132.921 280.854 132.983C280.854 133.045 280.171 135.35 279.363 138.091C277.685 143.634 276.318 151.731 276.815 152.666C277.064 152.977 278.12 153.226 279.177 153.226C281.227 153.226 286.944 149.801 292.474 145.254L295.146 143.136L301.173 147.184C304.528 149.427 308.629 151.918 310.245 152.666C312.792 153.911 313.289 153.974 313.848 153.226C314.656 151.981 314.035 148.368 311.922 141.703C309.499 133.98 309.126 132.049 310.182 132.049C310.68 132.049 312.047 131.052 313.227 129.806C314.346 128.561 317.08 126.194 319.254 124.45C323.417 121.086 324.536 118.906 322.92 117.224C321.926 116.29 314.035 115.356 305.647 115.293L302.788 115.231L302.353 112.615C301.732 108.94 298.314 98.9742 297.134 97.6039C295.891 96.1713 294.711 96.2336 293.654 97.9153Z" fill="black"/>
<path d="M337.709 178.889C305.584 179.387 287.006 179.885 286.633 180.197C286.322 180.57 291.231 195.021 291.852 195.519C292.101 195.768 307.014 195.706 324.971 195.457C342.928 195.145 371.759 195.021 389.157 195.083L420.66 195.27V187.11V178.951L417.802 178.515C414.322 178.079 377.724 178.203 337.709 178.889Z" fill="black"/>
<path d="M401.212 257.059C400.28 258.927 397.421 267.585 396.8 270.451C396.427 272.07 396.179 272.195 393.258 272.195C388.909 272.195 378.221 273.503 377.538 274.063C376.73 274.873 381.949 280.105 387.231 283.842L392.078 287.206L391.083 289.51C388.101 296.362 386.113 305.83 387.604 305.83C388.474 305.83 399.161 298.604 400.404 297.172C402.019 295.365 402.951 295.49 406.307 297.919C407.86 299.04 411.34 301.158 414.012 302.591C417.678 304.646 418.92 305.02 419.169 304.397C419.355 303.899 418.61 300.162 417.615 295.988C416.559 291.877 415.689 287.953 415.689 287.33C415.751 286.708 417.74 284.652 420.349 282.534C422.835 280.541 425.817 277.925 426.998 276.742C428.924 274.748 428.986 274.562 427.93 273.752C427.247 273.254 423.767 272.818 418.548 272.506L410.283 272.07L408.668 267.336C406.555 260.796 403.883 255.377 402.889 255.377C402.454 255.377 401.647 256.125 401.212 257.059Z" fill="black"/>
<path d="M377.786 316.543C356.101 316.854 338.268 317.166 338.206 317.29C338.019 317.415 338.889 320.405 341.934 330.433L343.487 335.416L353.305 335.354C376.668 335.291 419.48 334.233 419.79 333.797C420.66 332.364 421.282 325.512 420.909 320.903C420.536 315.858 420.474 315.796 418.858 315.92C417.988 315.982 399.472 316.232 377.786 316.543Z" fill="black"/>
<path d="M358.711 357.964C350.571 358.213 350.757 357.964 353.491 364.255C354.485 366.56 355.604 370.048 356.039 371.979L356.722 375.591L387.604 375.342L418.485 375.093L419.542 372.975C421.095 370.11 421.157 358.462 419.666 357.902C418.734 357.528 372.443 357.59 358.711 357.964Z" fill="black"/>
<path d="M368.093 403.371C368.28 403.994 369.149 407.607 370.019 411.406C370.951 415.144 371.821 418.756 371.946 419.379C372.256 420.438 373.623 420.5 395.495 420.313C412.831 420.189 418.92 419.94 419.48 419.379C421.344 417.51 421.219 404.742 419.355 403.558C418.858 403.247 407.736 402.998 394.128 402.998C380.769 402.998 369.336 402.811 368.777 402.562C367.907 402.25 367.782 402.437 368.093 403.371Z" fill="black"/>
</svg>
